<svg xmlns="http://www.w3.org/2000/svg" viewBox="0 0 900 1200" width="900" height="1200">
  <defs>
    <radialGradient id="hearts_pink" cx="0.35" cy="0.28" r="0.85">
      <stop offset="0" stop-color="#ffc3e8"/>
      <stop offset="0.55" stop-color="#ff5cc8"/>
      <stop offset="1" stop-color="#ff2d6f"/>
    </radialGradient>
    <radialGradient id="hearts_red" cx="0.35" cy="0.28" r="0.85">
      <stop offset="0" stop-color="#ffb0b8"/>
      <stop offset="0.5" stop-color="#ff5c6f"/>
      <stop offset="1" stop-color="#ff2d4f"/>
    </radialGradient>
    <radialGradient id="hearts_mag" cx="0.35" cy="0.28" r="0.85">
      <stop offset="0" stop-color="#ffb6ef"/>
      <stop offset="0.5" stop-color="#ff7ae0"/>
      <stop offset="1" stop-color="#c81e9a"/>
    </radialGradient>
    <filter id="hearts_shadow" x="-40%" y="-40%" width="180%" height="180%">
      <feDropShadow dx="0" dy="4" stdDeviation="5" flood-color="#8a0038" flood-opacity="0.35"/>
    </filter>
    <g id="hearts_pinkH">
      <path d="M0,-14 C-12,-38 -50,-34 -50,-6 C-50,20 -18,32 0,48 C18,32 50,20 50,-6 C50,-34 12,-38 0,-14 Z" fill="url(#hearts_pink)"/>
      <ellipse cx="-20" cy="-16" rx="12" ry="8" fill="#ffffff" opacity="0.55" transform="rotate(-30 -20 -16)"/>
    </g>
    <g id="hearts_redH">
      <path d="M0,-14 C-12,-38 -50,-34 -50,-6 C-50,20 -18,32 0,48 C18,32 50,20 50,-6 C50,-34 12,-38 0,-14 Z" fill="url(#hearts_red)"/>
      <ellipse cx="-20" cy="-16" rx="12" ry="8" fill="#ffffff" opacity="0.55" transform="rotate(-30 -20 -16)"/>
    </g>
    <g id="hearts_magH">
      <path d="M0,-14 C-12,-38 -50,-34 -50,-6 C-50,20 -18,32 0,48 C18,32 50,20 50,-6 C50,-34 12,-38 0,-14 Z" fill="url(#hearts_mag)"/>
      <ellipse cx="-20" cy="-16" rx="12" ry="8" fill="#ffffff" opacity="0.55" transform="rotate(-30 -20 -16)"/>
    </g>
  </defs>

  <g filter="url(#hearts_shadow)">
    <!-- TOP EDGE -->
    <use href="#hearts_pinkH" transform="translate(120,52) scale(0.9) rotate(-12)"/>
    <use href="#hearts_redH"  transform="translate(215,46) scale(0.72) rotate(10)"/>
    <use href="#hearts_magH"  transform="translate(300,54) scale(0.85) rotate(-6)"/>
    <use href="#hearts_pinkH" transform="translate(400,48) scale(0.78) rotate(8)"/>
    <use href="#hearts_redH"  transform="translate(500,52) scale(0.85) rotate(-8)"/>
    <use href="#hearts_pinkH" transform="translate(600,48) scale(0.78) rotate(6)"/>
    <use href="#hearts_magH"  transform="translate(690,54) scale(0.85) rotate(-10)"/>
    <use href="#hearts_redH"  transform="translate(778,46) scale(0.72) rotate(12)"/>

    <!-- BOTTOM EDGE -->
    <use href="#hearts_magH"  transform="translate(120,1148) scale(0.9) rotate(10)"/>
    <use href="#hearts_redH"  transform="translate(215,1154) scale(0.72) rotate(-8)"/>
    <use href="#hearts_pinkH" transform="translate(300,1146) scale(0.85) rotate(8)"/>
    <use href="#hearts_magH"  transform="translate(400,1152) scale(0.78) rotate(-10)"/>
    <use href="#hearts_pinkH" transform="translate(500,1148) scale(0.85) rotate(6)"/>
    <use href="#hearts_redH"  transform="translate(600,1152) scale(0.78) rotate(-6)"/>
    <use href="#hearts_pinkH" transform="translate(690,1146) scale(0.85) rotate(10)"/>
    <use href="#hearts_magH"  transform="translate(778,1154) scale(0.72) rotate(-12)"/>

    <!-- LEFT EDGE -->
    <use href="#hearts_redH"  transform="translate(50,230) scale(0.8) rotate(-8)"/>
    <use href="#hearts_pinkH" transform="translate(46,350) scale(0.7) rotate(10)"/>
    <use href="#hearts_magH"  transform="translate(52,470) scale(0.82) rotate(-6)"/>
    <use href="#hearts_redH"  transform="translate(48,600) scale(0.72) rotate(8)"/>
    <use href="#hearts_pinkH" transform="translate(52,730) scale(0.82) rotate(-10)"/>
    <use href="#hearts_magH"  transform="translate(48,860) scale(0.72) rotate(6)"/>
    <use href="#hearts_redH"  transform="translate(50,980) scale(0.8) rotate(-8)"/>

    <!-- RIGHT EDGE -->
    <use href="#hearts_pinkH" transform="translate(850,230) scale(0.8) rotate(8)"/>
    <use href="#hearts_magH"  transform="translate(854,350) scale(0.7) rotate(-10)"/>
    <use href="#hearts_redH"  transform="translate(848,470) scale(0.82) rotate(6)"/>
    <use href="#hearts_pinkH" transform="translate(852,600) scale(0.72) rotate(-8)"/>
    <use href="#hearts_magH"  transform="translate(848,730) scale(0.82) rotate(10)"/>
    <use href="#hearts_redH"  transform="translate(852,860) scale(0.72) rotate(-6)"/>
    <use href="#hearts_pinkH" transform="translate(850,980) scale(0.8) rotate(8)"/>

    <!-- CORNER CLUSTERS (denser) -->
    <use href="#hearts_magH"  transform="translate(60,60) scale(0.7) rotate(-20)"/>
    <use href="#hearts_pinkH" transform="translate(60,150) scale(0.62) rotate(14)"/>
    <use href="#hearts_redH"  transform="translate(150,60) scale(0.62) rotate(-14)"/>

    <use href="#hearts_magH"  transform="translate(840,60) scale(0.7) rotate(20)"/>
    <use href="#hearts_pinkH" transform="translate(840,150) scale(0.62) rotate(-14)"/>
    <use href="#hearts_redH"  transform="translate(750,60) scale(0.62) rotate(14)"/>

    <use href="#hearts_magH"  transform="translate(60,1140) scale(0.7) rotate(20)"/>
    <use href="#hearts_pinkH" transform="translate(60,1050) scale(0.62) rotate(-14)"/>
    <use href="#hearts_redH"  transform="translate(150,1140) scale(0.62) rotate(14)"/>

    <use href="#hearts_magH"  transform="translate(840,1140) scale(0.7) rotate(-20)"/>
    <use href="#hearts_pinkH" transform="translate(840,1050) scale(0.62) rotate(14)"/>
    <use href="#hearts_redH"  transform="translate(750,1140) scale(0.62) rotate(-14)"/>
  </g>
</svg>
